<mxfile host="app.diagrams.net" modified="2022-07-12T07:56:28.087Z" agent="5.0 (Windows NT 10.0; Win64; x64) AppleWebKit/537.36 (KHTML, like Gecko) Chrome/103.0.0.0 Safari/537.36" etag="9J2N1JKv1ZH72-AZoPxX" version="20.0.4" type="github">
  <diagram id="QJjx0-fPxzvcmYibJWj1" name="Page-1">
    <mxGraphModel dx="868" dy="1648" grid="1" gridSize="10" guides="1" tooltips="1" connect="1" arrows="1" fold="1" page="1" pageScale="1" pageWidth="827" pageHeight="583" math="0" shadow="0">
      <root>
        <mxCell id="0" />
        <mxCell id="1" parent="0" />
        <mxCell id="4f-DMQIj-ya-iA7LCkDa-23" value="" style="shape=cube;whiteSpace=wrap;html=1;boundedLbl=1;backgroundOutline=1;darkOpacity=0.05;darkOpacity2=0.1;size=7;direction=east;flipH=1;fillColor=#ffe6cc;strokeColor=#d79b00;fontStyle=1" parent="1" vertex="1">
          <mxGeometry x="1157.5" y="-147.06" width="30" height="20" as="geometry" />
        </mxCell>
        <mxCell id="4f-DMQIj-ya-iA7LCkDa-24" value="" style="shape=cube;whiteSpace=wrap;html=1;boundedLbl=1;backgroundOutline=1;darkOpacity=0.05;darkOpacity2=0.1;size=7;direction=east;flipH=1;fillColor=#f8cecc;strokeColor=#b85450;fontStyle=1" parent="1" vertex="1">
          <mxGeometry x="1157.5" y="-117.06" width="30" height="20" as="geometry" />
        </mxCell>
        <mxCell id="4f-DMQIj-ya-iA7LCkDa-26" value="" style="shape=cube;whiteSpace=wrap;html=1;boundedLbl=1;backgroundOutline=1;darkOpacity=0.05;darkOpacity2=0.1;size=7;direction=east;flipH=1;fillColor=#dae8fc;strokeColor=#6c8ebf;fontStyle=1" parent="1" vertex="1">
          <mxGeometry x="1157.5" y="-87.06" width="30" height="20" as="geometry" />
        </mxCell>
        <mxCell id="4f-DMQIj-ya-iA7LCkDa-28" value="" style="shape=cube;whiteSpace=wrap;html=1;boundedLbl=1;backgroundOutline=1;darkOpacity=0.05;darkOpacity2=0.1;size=7;direction=east;flipH=1;fillColor=#d5e8d4;strokeColor=#82b366;fontStyle=1" parent="1" vertex="1">
          <mxGeometry x="1157.5" y="-57.06" width="30" height="20" as="geometry" />
        </mxCell>
        <mxCell id="4f-DMQIj-ya-iA7LCkDa-50" value="convolutional + ReLU" style="text;html=1;strokeColor=none;fillColor=none;align=left;verticalAlign=middle;whiteSpace=wrap;rounded=0;fontStyle=1" parent="1" vertex="1">
          <mxGeometry x="1198.5" y="-150" width="138" height="23.88" as="geometry" />
        </mxCell>
        <mxCell id="4f-DMQIj-ya-iA7LCkDa-51" value="max pooling" style="text;html=1;strokeColor=none;fillColor=none;align=left;verticalAlign=middle;whiteSpace=wrap;rounded=0;fontStyle=1" parent="1" vertex="1">
          <mxGeometry x="1198.5" y="-120" width="138" height="23.88" as="geometry" />
        </mxCell>
        <mxCell id="4f-DMQIj-ya-iA7LCkDa-52" value="fully connected + ReLU" style="text;html=1;strokeColor=none;fillColor=none;align=left;verticalAlign=middle;whiteSpace=wrap;rounded=0;fontStyle=1" parent="1" vertex="1">
          <mxGeometry x="1198.5" y="-88.94" width="138" height="23.88" as="geometry" />
        </mxCell>
        <mxCell id="4f-DMQIj-ya-iA7LCkDa-53" value="softmax" style="text;html=1;strokeColor=none;fillColor=none;align=left;verticalAlign=middle;whiteSpace=wrap;rounded=0;fontStyle=1" parent="1" vertex="1">
          <mxGeometry x="1197.5" y="-60.94" width="138" height="23.88" as="geometry" />
        </mxCell>
        <mxCell id="mSFJ4BL2Jpuyv1bK3VGM-9" value="128 x 172 x 256" style="text;html=1;strokeColor=none;fillColor=none;align=center;verticalAlign=middle;whiteSpace=wrap;rounded=0;rotation=-90;fontStyle=1" parent="1" vertex="1">
          <mxGeometry x="349" y="-80.00000000000001" width="99" height="30" as="geometry" />
        </mxCell>
        <mxCell id="mSFJ4BL2Jpuyv1bK3VGM-14" value="256x 344 x 64" style="text;html=1;strokeColor=none;fillColor=none;align=center;verticalAlign=middle;whiteSpace=wrap;rounded=0;rotation=-90;fontStyle=1" parent="1" vertex="1">
          <mxGeometry x="252" y="-89.99999999999999" width="99" height="30" as="geometry" />
        </mxCell>
        <mxCell id="mSFJ4BL2Jpuyv1bK3VGM-36" value="" style="shape=cube;whiteSpace=wrap;html=1;boundedLbl=1;backgroundOutline=1;darkOpacity=0.05;darkOpacity2=0.1;size=70;direction=east;flipH=1;fillColor=#ffe6cc;strokeColor=#d79b00;" parent="1" vertex="1">
          <mxGeometry x="186" y="-582" width="80" height="220" as="geometry" />
        </mxCell>
        <mxCell id="mSFJ4BL2Jpuyv1bK3VGM-367" style="edgeStyle=orthogonalEdgeStyle;rounded=0;orthogonalLoop=1;jettySize=auto;html=1;entryX=0;entryY=0;entryDx=15;entryDy=0;entryPerimeter=0;fontColor=#383838;exitX=0;exitY=0;exitDx=15;exitDy=0;exitPerimeter=0;" parent="1" source="mSFJ4BL2Jpuyv1bK3VGM-368" target="mSFJ4BL2Jpuyv1bK3VGM-366" edge="1">
          <mxGeometry relative="1" as="geometry">
            <mxPoint x="270" y="-590" as="sourcePoint" />
            <Array as="points">
              <mxPoint x="342" y="-640" />
              <mxPoint x="1195" y="-640" />
            </Array>
          </mxGeometry>
        </mxCell>
        <mxCell id="mSFJ4BL2Jpuyv1bK3VGM-375" style="edgeStyle=orthogonalEdgeStyle;rounded=0;orthogonalLoop=1;jettySize=auto;html=1;exitX=0;exitY=0;exitDx=85;exitDy=220;exitPerimeter=0;fontColor=#383838;entryX=0;entryY=0;entryDx=77;entryDy=70;entryPerimeter=0;" parent="1" source="4f-DMQIj-ya-iA7LCkDa-4" target="mSFJ4BL2Jpuyv1bK3VGM-346" edge="1">
          <mxGeometry relative="1" as="geometry">
            <mxPoint x="140" y="-180" as="targetPoint" />
            <Array as="points">
              <mxPoint x="218" y="-220" />
              <mxPoint x="280" y="-220" />
            </Array>
          </mxGeometry>
        </mxCell>
        <mxCell id="mSFJ4BL2Jpuyv1bK3VGM-376" style="edgeStyle=orthogonalEdgeStyle;rounded=0;orthogonalLoop=1;jettySize=auto;html=1;exitX=0;exitY=0;exitDx=15;exitDy=0;exitPerimeter=0;entryX=0;entryY=0;entryDx=15;entryDy=0;entryPerimeter=0;fontColor=#383838;" parent="1" source="4f-DMQIj-ya-iA7LCkDa-4" target="mSFJ4BL2Jpuyv1bK3VGM-364" edge="1">
          <mxGeometry relative="1" as="geometry" />
        </mxCell>
        <mxCell id="4f-DMQIj-ya-iA7LCkDa-4" value="" style="shape=cube;whiteSpace=wrap;html=1;boundedLbl=1;backgroundOutline=1;darkOpacity=0.05;darkOpacity2=0.1;size=70;direction=east;flipH=1;fillColor=#ffe6cc;strokeColor=#d79b00;" parent="1" vertex="1">
          <mxGeometry x="203" y="-582" width="100" height="220" as="geometry" />
        </mxCell>
        <mxCell id="mSFJ4BL2Jpuyv1bK3VGM-344" value="512 x 688 x 3&amp;nbsp;" style="text;html=1;strokeColor=none;fillColor=none;align=center;verticalAlign=middle;whiteSpace=wrap;rounded=0;rotation=-90;fontStyle=1" parent="1" vertex="1">
          <mxGeometry x="146" y="-302" width="99" height="30" as="geometry" />
        </mxCell>
        <mxCell id="mSFJ4BL2Jpuyv1bK3VGM-345" value="512 x 688 x 32&amp;nbsp;" style="text;html=1;strokeColor=none;fillColor=none;align=center;verticalAlign=middle;whiteSpace=wrap;rounded=0;rotation=-90;fontStyle=1" parent="1" vertex="1">
          <mxGeometry x="177" y="-302" width="99" height="30" as="geometry" />
        </mxCell>
        <mxCell id="mSFJ4BL2Jpuyv1bK3VGM-354" style="edgeStyle=orthogonalEdgeStyle;rounded=0;orthogonalLoop=1;jettySize=auto;html=1;exitX=0;exitY=0;exitDx=28.5;exitDy=0;exitPerimeter=0;entryX=0;entryY=0;entryDx=28.5;entryDy=0;entryPerimeter=0;fontColor=#383838;" parent="1" source="mSFJ4BL2Jpuyv1bK3VGM-346" target="mSFJ4BL2Jpuyv1bK3VGM-350" edge="1">
          <mxGeometry relative="1" as="geometry">
            <Array as="points">
              <mxPoint x="329" y="-330" />
              <mxPoint x="529" y="-330" />
            </Array>
          </mxGeometry>
        </mxCell>
        <mxCell id="mSFJ4BL2Jpuyv1bK3VGM-355" style="edgeStyle=orthogonalEdgeStyle;rounded=0;orthogonalLoop=1;jettySize=auto;html=1;exitX=0;exitY=0;exitDx=58.5;exitDy=110;exitPerimeter=0;entryX=0;entryY=0;entryDx=81;entryDy=35;entryPerimeter=0;fontColor=#383838;fontStyle=1" parent="1" source="mSFJ4BL2Jpuyv1bK3VGM-346" target="mSFJ4BL2Jpuyv1bK3VGM-347" edge="1">
          <mxGeometry relative="1" as="geometry" />
        </mxCell>
        <mxCell id="mSFJ4BL2Jpuyv1bK3VGM-346" value="" style="shape=cube;whiteSpace=wrap;html=1;boundedLbl=1;backgroundOutline=1;darkOpacity=0.05;darkOpacity2=0.1;size=30;direction=east;flipH=1;fillColor=#ffe6cc;strokeColor=#d79b00;fontStyle=1" parent="1" vertex="1">
          <mxGeometry x="280" y="-291.5" width="77" height="110" as="geometry" />
        </mxCell>
        <mxCell id="mSFJ4BL2Jpuyv1bK3VGM-351" style="edgeStyle=orthogonalEdgeStyle;rounded=0;orthogonalLoop=1;jettySize=auto;html=1;exitX=0;exitY=0;exitDx=0;exitDy=20;exitPerimeter=0;entryX=0;entryY=0;entryDx=58.5;entryDy=110;entryPerimeter=0;fontColor=#383838;" parent="1" source="mSFJ4BL2Jpuyv1bK3VGM-347" target="mSFJ4BL2Jpuyv1bK3VGM-349" edge="1">
          <mxGeometry relative="1" as="geometry">
            <Array as="points">
              <mxPoint x="417" y="-150.45" />
              <mxPoint x="567" y="-150.45" />
            </Array>
          </mxGeometry>
        </mxCell>
        <mxCell id="mSFJ4BL2Jpuyv1bK3VGM-347" value="" style="shape=cube;whiteSpace=wrap;html=1;boundedLbl=1;backgroundOutline=1;darkOpacity=0.05;darkOpacity2=0.1;size=15;direction=east;flipH=1;fillColor=#ffe6cc;strokeColor=#d79b00;fontStyle=1" parent="1" vertex="1">
          <mxGeometry x="374" y="-170" width="81" height="55" as="geometry" />
        </mxCell>
        <mxCell id="mSFJ4BL2Jpuyv1bK3VGM-350" value="" style="shape=cube;whiteSpace=wrap;html=1;boundedLbl=1;backgroundOutline=1;darkOpacity=0.05;darkOpacity2=0.1;size=30;direction=east;flipH=1;fillColor=#ffe6cc;strokeColor=#FF3399;" parent="1" vertex="1">
          <mxGeometry x="480" y="-293.45" width="77" height="110" as="geometry" />
        </mxCell>
        <mxCell id="mSFJ4BL2Jpuyv1bK3VGM-349" value="" style="shape=cube;whiteSpace=wrap;html=1;boundedLbl=1;backgroundOutline=1;darkOpacity=0.05;darkOpacity2=0.1;size=30;direction=east;flipH=1;fillColor=#ffe6cc;strokeColor=#d79b00;" parent="1" vertex="1">
          <mxGeometry x="527" y="-293.45" width="77" height="110" as="geometry" />
        </mxCell>
        <mxCell id="mSFJ4BL2Jpuyv1bK3VGM-360" value="" style="shape=cube;whiteSpace=wrap;html=1;boundedLbl=1;backgroundOutline=1;darkOpacity=0.05;darkOpacity2=0.1;size=30;direction=east;flipH=1;fillColor=#ffe6cc;strokeColor=#d79b00;" parent="1" vertex="1">
          <mxGeometry x="620" y="-293.45" width="77" height="110" as="geometry" />
        </mxCell>
        <mxCell id="mSFJ4BL2Jpuyv1bK3VGM-374" style="edgeStyle=orthogonalEdgeStyle;rounded=0;orthogonalLoop=1;jettySize=auto;html=1;exitX=0;exitY=0;exitDx=0;exitDy=40;exitPerimeter=0;entryX=0;entryY=0;entryDx=85;entryDy=220;entryPerimeter=0;fontColor=#383838;" parent="1" source="mSFJ4BL2Jpuyv1bK3VGM-361" target="mSFJ4BL2Jpuyv1bK3VGM-362" edge="1">
          <mxGeometry relative="1" as="geometry" />
        </mxCell>
        <mxCell id="mSFJ4BL2Jpuyv1bK3VGM-361" value="" style="shape=cube;whiteSpace=wrap;html=1;boundedLbl=1;backgroundOutline=1;darkOpacity=0.05;darkOpacity2=0.1;size=30;direction=east;flipH=1;fillColor=#ffe6cc;strokeColor=#d79b00;" parent="1" vertex="1">
          <mxGeometry x="707" y="-293.45" width="77" height="110" as="geometry" />
        </mxCell>
        <mxCell id="mSFJ4BL2Jpuyv1bK3VGM-362" value="" style="shape=cube;whiteSpace=wrap;html=1;boundedLbl=1;backgroundOutline=1;darkOpacity=0.05;darkOpacity2=0.1;size=70;direction=east;flipH=1;fillColor=#ffe6cc;strokeColor=#d79b00;" parent="1" vertex="1">
          <mxGeometry x="810.5" y="-583" width="100" height="220" as="geometry" />
        </mxCell>
        <mxCell id="mSFJ4BL2Jpuyv1bK3VGM-363" value="512 x 688 x 32&amp;nbsp;" style="text;html=1;strokeColor=none;fillColor=none;align=center;verticalAlign=middle;whiteSpace=wrap;rounded=0;rotation=-90;fontStyle=1" parent="1" vertex="1">
          <mxGeometry x="787.5" y="-250.5" width="99" height="30" as="geometry" />
        </mxCell>
        <mxCell id="mSFJ4BL2Jpuyv1bK3VGM-365" value="" style="shape=cube;whiteSpace=wrap;html=1;boundedLbl=1;backgroundOutline=1;darkOpacity=0.05;darkOpacity2=0.1;size=70;direction=east;flipH=1;fillColor=#ffe6cc;strokeColor=#d79b00;" parent="1" vertex="1">
          <mxGeometry x="1080" y="-583" width="100" height="220" as="geometry" />
        </mxCell>
        <mxCell id="mSFJ4BL2Jpuyv1bK3VGM-368" value="" style="shape=cube;whiteSpace=wrap;html=1;boundedLbl=1;backgroundOutline=1;darkOpacity=0.05;darkOpacity2=0.1;size=70;direction=east;flipH=1;fillColor=#ffe6cc;strokeColor=#d79b00;" parent="1" vertex="1">
          <mxGeometry x="257" y="-582" width="100" height="220" as="geometry" />
        </mxCell>
        <mxCell id="mSFJ4BL2Jpuyv1bK3VGM-364" value="" style="shape=cube;whiteSpace=wrap;html=1;boundedLbl=1;backgroundOutline=1;darkOpacity=0.05;darkOpacity2=0.1;size=70;direction=east;flipH=1;fillColor=#ffe6cc;strokeColor=#FF3399;" parent="1" vertex="1">
          <mxGeometry x="840.5" y="-583" width="100" height="220" as="geometry" />
        </mxCell>
        <mxCell id="mSFJ4BL2Jpuyv1bK3VGM-366" value="" style="shape=cube;whiteSpace=wrap;html=1;boundedLbl=1;backgroundOutline=1;darkOpacity=0.05;darkOpacity2=0.1;size=70;direction=east;flipH=1;fillColor=#ffe6cc;strokeColor=#FF3399;" parent="1" vertex="1">
          <mxGeometry x="1110" y="-583" width="100" height="220" as="geometry" />
        </mxCell>
        <mxCell id="mSFJ4BL2Jpuyv1bK3VGM-370" value="" style="shape=cube;whiteSpace=wrap;html=1;boundedLbl=1;backgroundOutline=1;darkOpacity=0.05;darkOpacity2=0.1;size=70;direction=east;flipH=1;fillColor=#ffe6cc;strokeColor=#d79b00;" parent="1" vertex="1">
          <mxGeometry x="1236.5" y="-583" width="100" height="220" as="geometry" />
        </mxCell>
        <mxCell id="mSFJ4BL2Jpuyv1bK3VGM-369" value="" style="shape=cube;whiteSpace=wrap;html=1;boundedLbl=1;backgroundOutline=1;darkOpacity=0.05;darkOpacity2=0.1;size=70;direction=east;flipH=1;fillColor=#808080;strokeColor=#d79b00;" parent="1" vertex="1">
          <mxGeometry x="1296.5" y="-583" width="70" height="220" as="geometry" />
        </mxCell>
        <mxCell id="mSFJ4BL2Jpuyv1bK3VGM-377" value="" style="shape=cube;whiteSpace=wrap;html=1;boundedLbl=1;backgroundOutline=1;darkOpacity=0.05;darkOpacity2=0.1;size=70;direction=east;flipH=1;fillColor=#ffe6cc;strokeColor=#d79b00;" parent="1" vertex="1">
          <mxGeometry x="910.5" y="-582" width="100" height="220" as="geometry" />
        </mxCell>
        <mxCell id="mSFJ4BL2Jpuyv1bK3VGM-378" value="" style="shape=cube;whiteSpace=wrap;html=1;boundedLbl=1;backgroundOutline=1;darkOpacity=0.05;darkOpacity2=0.1;size=70;direction=east;flipH=1;fillColor=#ffe6cc;strokeColor=#d79b00;" parent="1" vertex="1">
          <mxGeometry x="970" y="-583" width="100" height="220" as="geometry" />
        </mxCell>
      </root>
    </mxGraphModel>
  </diagram>
</mxfile>
